<svg width="64" height="96" viewBox="0 0 64 96" fill="none" xmlns="http://www.w3.org/2000/svg">
  <path d="M32 96C32 96 24 80 24 64C24 48 20 40 20 24C20 8 28 0 32 0C36 0 44 8 44 24C44 40 40 48 40 64C40 80 32 96 32 96Z" fill="#E74C3C"/>
  <path d="M20 72C20 72 12 64 8 56C4 48 0 44 4 32C8 20 16 16 20 20C24 24 24 32 24 40C24 48 20 56 20 72Z" fill="#E74C3C" opacity="0.8"/>
  <path d="M44 72C44 72 52 64 56 56C60 48 64 44 60 32C56 20 48 16 44 20C40 24 40 32 40 40C40 48 44 56 44 72Z" fill="#E74C3C" opacity="0.8"/>
</svg>
